PathFileType	4	(X/Y/Z)	Patient4_TMGait_0pt2_03_right_14.trc.trc
DataRate	CameraRate	NumFrames	NumMarkers	Units	OrigDataRate	OrigDataStartFrame	OrigNumFrames
43.887147335423	43.887147335423	5	33	mm	43.887147335423	36	       141
Frame#	Time	Sacral			L.Shoulder			Chest			R.Shoulder			Neck			R.ASIS			L.ASIS			R.Thigh.Superior			R.Thigh.Lateral			R.Thigh.Inferior			R.Patella			L.Thigh.Superior			L.Thigh.Lateral			L.Thigh.Inferior			L.Patella			L.Shank.Superior			L.Shank.Lateral			L.Shank.Inferior			R.Shank.Superior			R.Shank.Lateral			R.Shank.Inferior			R.Heel			R.Midfoot.Superior			R.Midfoot.Lateral			R.Toe			L.Heel			L.Midfoot.Lateral			L.Midfoot.Superior			L.Toe			L.Elbow			L.Wrist			R.Elbow			R.Wrist			
		X1	Y1	Z1	X2	Y2	Z2	X3	Y3	Z3	X4	Y4	Z4	X5	Y5	Z5	X6	Y6	Z6	X7	Y7	Z7	X8	Y8	Z8	X9	Y9	Z9	X10	Y10	Z10	X11	Y11	Z11	X12	Y12	Z12	X13	Y13	Z13	X14	Y14	Z14	X15	Y15	Z15	X16	Y16	Z16	X17	Y17	Z17	X18	Y18	Z18	X19	Y19	Z19	X20	Y20	Z20	X21	Y21	Z21	X22	Y22	Z22	X23	Y23	Z23	X24	Y24	Z24	X25	Y25	Z25	X26	Y26	Z26	X27	Y27	Z27	X28	Y28	Z28	X29	Y29	Z29	X30	Y30	Z30	X31	Y31	Z31	X32	Y32	Z32	X33	Y33	Z33	

36	30.727500000000	864.196147768546	1009.569919619848	514.756196248217	1089.772757074671	1433.386921029645	364.886735104258	1157.692172080422	1358.299726483501	540.000799087793	1048.242630690880	1439.640382881971	694.718716035578	1056.797848961947	1495.306130725247	515.697085638104	1080.388913491929	939.588145210236	656.864816131165	1093.390350330223	960.663203092613	381.063926801612	1136.491659688251	747.235298673481	620.032099947738	1063.668334816947	632.663123087408	679.635894617956	1144.317244105462	586.399705695421	598.662035251039	1151.943414809531	499.934901234893	605.512987755497	1106.126947192297	733.737125131834	403.117652013045	996.711336470968	625.586652235939	327.024020000415	1074.377195215297	540.516715093763	392.794172709767	1064.983192958034	467.299864514637	394.774811926078	1017.605787712115	404.815737629896	382.711880623715	902.938052362328	318.929330925141	323.557370891461	924.292021629995	193.040730877275	385.263162773124	1128.535778249841	408.952759167061	615.156665718688	1064.438856250147	303.998818413275	683.650004098684	1107.596247223092	209.102021427693	620.102471187493	978.964796720710	42.518369856293	602.709535132519	1151.196387299873	97.963018202353	626.504361485257	1067.265405537053	36.809527789800	671.747118796523	1273.640839342442	49.665974622426	645.542140944038	766.760259835274	57.175064634167	416.228045990938	841.443677196833	45.033153673585	338.104073278232	930.469156601301	98.284391323522	364.960233544220	1052.670832161982	38.461014138996	337.993202000233	1201.568394008821	1119.230540537284	222.647517741389	1441.077512495942	1106.646249075948	318.333329101821	902.490171412612	1128.896395958016	809.576211454611	982.283281495952	881.817993344466	828.760385771940	
37	30.750285714286	865.336956343968	1010.593331728679	522.294114900236	1088.269171364316	1434.426030898172	369.218566032611	1158.449134634339	1359.576017191723	543.505690605281	1050.870214620229	1440.768760943563	699.523590698084	1056.986305895701	1496.411838262904	520.435684073359	1082.979858271933	940.527220627255	661.761397050962	1092.946726307897	961.659231626368	385.784596539185	1136.696386506596	746.729069544228	624.401904382677	1062.671100307864	632.738697752671	683.833264889763	1142.223505023602	585.937344744894	602.146332836330	1148.836054556523	499.588854733255	608.362525449439	1108.137939134540	735.560575988442	406.638284112546	999.557823781041	626.734486814983	330.513010401877	1079.794004511517	541.838136276241	394.452331570438	1071.005771767126	467.558638484520	395.231151211561	1021.800750741351	405.918333053653	383.446337314097	904.721558291470	323.073721238623	324.947062494857	924.521344847544	195.991760532391	384.648331938370	1125.207666953738	408.783223449525	617.560297443030	1061.001170686625	303.577362554955	685.484477466651	1103.559590920502	208.926238055451	621.060503100220	974.449473786183	42.556758489524	602.824935802586	1146.812792219979	97.825462127412	626.653137959293	1062.790571299307	36.833120695625	671.861349808061	1269.232177669810	49.340859574662	645.609330653853	764.197205599739	64.286026017122	415.657642319368	838.152126391428	48.808956841076	337.758490123086	928.717480456877	99.405307231052	363.859581538656	1048.250199484071	37.740856676857	337.906539881400	1191.862546611208	1115.330506980277	229.021351138732	1430.708505071928	1083.814110778623	323.262499325492	911.614337453352	1128.973836554651	820.050004862352	1002.264265844276	885.760353794707	838.278875085649	
38	30.773071428571	866.298855990111	1011.467325663594	529.822343776194	1086.383550233785	1435.279632505740	373.384060901167	1159.035642162443	1360.704978686516	546.740506365428	1053.540787117996	1441.758434969286	704.168145900942	1056.986426713951	1497.378898453431	525.031258601105	1085.443153952362	941.323995537380	666.507997065754	1092.266396340656	962.607142657319	390.422927373819	1136.855795268529	746.152633364288	628.674107745808	1061.709413999256	632.718886983032	687.944891053849	1140.216713677982	585.425117673452	605.578983452575	1145.915227630221	499.163867872170	611.212627153231	1110.969946980029	737.827484095757	410.194213692556	1004.087698352794	627.824288450139	333.901511418208	1087.248531069530	543.546390533512	396.182799495445	1079.259786123070	468.011312539850	395.633115147613	1028.012634308665	407.146219422222	384.122353151013	908.334314145489	327.887119803287	326.261949496792	926.005014107515	199.649894571895	383.933052997320	1121.987518185535	408.551248371940	619.935768906665	1057.631343377768	303.121815549091	687.271440298706	1099.565604321021	208.719291425713	621.993396579836	969.881852663100	42.584087194278	602.930419423063	1142.381981810412	97.674232943251	626.796630095463	1058.261765463723	36.840168905280	671.952350164033	1264.772362152479	48.971807327816	645.671275790623	762.439208767175	73.309978834601	414.954496698517	835.333392654118	53.897569106206	337.318146957667	927.654262686299	101.060677048191	362.619510912742	1043.707705140958	36.949383697871	337.864323383286	1180.583561922759	1111.037914420603	235.455141648763	1417.112821896711	1058.725314644019	327.124259826513	921.578018093285	1128.767447976922	830.441507677341	1022.623615806222	889.787524352672	847.283631363493	
39	30.795857142857	867.042166100859	1012.117737955235	537.309901629328	1084.154866733617	1435.846193988631	377.386283311043	1159.453077140194	1361.584497146642	549.717430125783	1056.252696113177	1442.539970505020	708.637523090066	1056.822272909770	1498.124502714892	529.468454304410	1087.734195024345	941.917453277094	671.104593097200	1091.332163185617	963.452375372486	394.999884759046	1137.078369011192	745.540039702169	632.808291123570	1061.000804234901	632.567188461431	691.923678846108	1138.551932113456	584.880056710009	608.911222943435	1143.502620399166	498.624097121842	614.023924509833	1114.595258416303	740.542614590752	413.822812390908	1010.321686832182	628.897811685213	337.186498420452	1096.676540517796	545.716739485859	398.067972827182	1089.688612201030	468.762723150713	396.095424900837	1036.248483573477	408.554576480507	384.824435511921	913.856010771363	333.414356559789	327.533619982326	928.796479316666	204.100069671104	383.203973978421	1119.124258980773	408.216105800236	622.233268221331	1054.521300695569	302.630813677672	688.974802293369	1095.729301197868	208.458048725314	622.867580390395	965.284410098758	42.616551546338	603.015746748902	1137.925616280293	97.516147708152	626.925025808639	1053.695913571135	36.842577614529	672.012726320502	1260.281918002563	48.551482881811	645.728935178571	761.632964832098	84.379911660183	414.172913900488	833.108504665126	60.513828901380	336.823580855705	927.342934220727	103.417092154336	361.325047060779	1039.078922880489	36.088911720772	337.870203673589	1167.853733387502	1106.375217809290	242.015410138201	1399.925225210127	1031.753330497832	329.775358478053	932.340256360274	1128.200295876701	840.599831605447	1043.338864784602	893.799430805180	855.647755019912	
40	30.818642857143	867.532631567912	1012.451806541467	544.719431854225	1081.618786515663	1436.020873896735	381.221306210867	1159.695438897609	1362.106914075715	552.445095851379	1058.988941646232	1443.031257447184	712.912759036986	1056.506135800456	1498.556259363202	533.728892875030	1089.816996123379	942.237737443261	675.544356229138	1090.130882150538	964.128912028267	399.526091992475	1137.488715256609	744.912927245443	636.759005478842	1060.776572392832	632.231787917822	695.712400829442	1137.497042435530	584.307152380761	612.079443424487	1141.927524315948	497.922525507664	616.734937347097	1118.932687633612	743.682679984149	417.562683259266	1018.187824032991	629.996854466261	340.381965535733	1107.899580967703	548.405870815827	400.204202760848	1102.121594806593	469.908597458480	396.758400580239	1046.409473168336	410.189106137359	385.662360778997	921.267888637774	339.654262629177	328.822543124963	932.889793023786	209.379948847326	382.579460623814	1116.875568360732	407.725850079129	624.388535509685	1051.869603619582	302.098317824027	690.549902767807	1092.167433608883	208.114219584197	623.645499214420	960.681490164616	42.672265935159	603.074847267115	1133.469254733210	97.356413350673	627.029178456396	1049.113520121800	36.853267312358	672.038054186183	1255.783983831042	48.070598134605	645.785117834715	761.898061487711	97.472656550699	413.406113852541	831.602915375414	68.784787506244	336.340767496708	927.829401416801	106.625077423394	360.091064120747	1034.459580675900	35.181425443508	337.916836198397	1153.843650694177	1101.378097294736	248.750850875608	1378.869961661562	1003.394799742755	331.124539903136	943.838736087879	1127.191933220912	850.364368837482	1064.399667478698	897.706602092284	863.245872897100	
